<svg width="29" height="29" viewBox="0 0 29 29" fill="none" xmlns="http://www.w3.org/2000/svg">
<path fill-rule="evenodd" clip-rule="evenodd" d="M9.19847 12.5374L13.0021 12.5263L12.992 9.20281L15.5488 9.19775L15.5589 12.5182L19.4134 12.5071L19.4185 15.0482L15.566 15.0593L15.5772 18.5425L19.4653 22.7858H15.8417L14.2856 21.0886L12.7306 22.7858H9.10693L13.0204 18.5152L13.0103 15.0674L9.20355 15.0785L9.19847 12.5374Z" fill="#32A03D"/>
<path fill-rule="evenodd" clip-rule="evenodd" d="M21.0841 17.4957C20.2857 18.2204 19.2239 18.6642 18.0615 18.6642C17.5174 18.6642 16.9956 18.5671 16.5125 18.3892V16.0331H20.3599V11.6048H16.5125V8.26014H12.057V11.6048H8.2604V16.0331H12.057V18.4509C11.5973 18.6096 11.103 18.6965 10.5904 18.6965C9.38727 18.6965 8.29295 18.2214 7.48543 17.4512C6.83047 17.8242 6.07177 18.0385 5.26527 18.0385C2.79288 18.0385 0.776123 16.0341 0.776123 13.5769C0.776123 11.6028 2.07791 9.91985 3.87194 9.33562C3.80991 9.04047 3.77736 8.73622 3.77736 8.42288C3.77736 5.96566 5.79412 3.96127 8.26651 3.96127C8.82078 3.96127 9.35167 4.06134 9.84187 4.2453C9.9568 1.88815 11.9258 0 14.3259 0C16.6966 0 18.6493 1.84367 18.8049 4.16242C19.2219 4.03405 19.6653 3.96531 20.124 3.96531C22.5964 3.96531 24.6131 5.9697 24.6131 8.42692C24.6131 8.73521 24.5816 9.03542 24.5216 9.32652C26.4102 9.85314 27.8015 11.5826 27.8015 13.6244C27.8015 16.0816 25.7847 18.086 23.3124 18.086C22.5018 18.086 21.74 17.8707 21.0841 17.4957Z" fill="#32A03D"/>
<path fill-rule="evenodd" clip-rule="evenodd" d="M14.2455 23.7769C21.2039 23.7769 26.7274 26.506 28.5784 28.0919C22.0287 24.7179 7.06527 24.63 0 28.0919C2.54358 26.4585 7.28698 23.7769 14.2455 23.7769Z" fill="#32A03D"/>
</svg>
