<svg width="118" height="29" viewBox="0 0 118 29" fill="none" xmlns="http://www.w3.org/2000/svg">
<path fill-rule="evenodd" clip-rule="evenodd" d="M9.19847 12.5374L13.0021 12.5263L12.992 9.20281L15.5488 9.19775L15.5589 12.5182L19.4134 12.5071L19.4185 15.0482L15.566 15.0593L15.5772 18.5425L19.4653 22.7858H15.8417L14.2856 21.0886L12.7306 22.7858H9.10693L13.0204 18.5152L13.0103 15.0674L9.20355 15.0785L9.19847 12.5374Z" fill="#32A03D"/>
<path fill-rule="evenodd" clip-rule="evenodd" d="M21.0841 17.4957C20.2857 18.2204 19.2239 18.6642 18.0615 18.6642C17.5174 18.6642 16.9956 18.5671 16.5125 18.3892V16.0331H20.3599V11.6048H16.5125V8.26014H12.057V11.6048H8.2604V16.0331H12.057V18.4509C11.5973 18.6096 11.103 18.6965 10.5904 18.6965C9.38727 18.6965 8.29295 18.2214 7.48543 17.4512C6.83047 17.8242 6.07177 18.0385 5.26527 18.0385C2.79288 18.0385 0.776123 16.0341 0.776123 13.5769C0.776123 11.6028 2.07791 9.91985 3.87194 9.33562C3.80991 9.04047 3.77736 8.73622 3.77736 8.42288C3.77736 5.96566 5.79412 3.96127 8.26651 3.96127C8.82078 3.96127 9.35167 4.06134 9.84187 4.2453C9.9568 1.88815 11.9258 0 14.3259 0C16.6966 0 18.6493 1.84367 18.8049 4.16242C19.2219 4.03405 19.6653 3.96531 20.124 3.96531C22.5964 3.96531 24.6131 5.9697 24.6131 8.42692C24.6131 8.73521 24.5816 9.03542 24.5216 9.32652C26.4102 9.85314 27.8015 11.5826 27.8015 13.6244C27.8015 16.0816 25.7847 18.086 23.3124 18.086C22.5018 18.086 21.74 17.8707 21.0841 17.4957Z" fill="#32A03D"/>
<path fill-rule="evenodd" clip-rule="evenodd" d="M14.2455 23.7769C21.2039 23.7769 26.7274 26.506 28.5784 28.0919C22.0287 24.7179 7.06527 24.63 0 28.0919C2.54358 26.4585 7.28698 23.7769 14.2455 23.7769Z" fill="#32A03D"/>
<path d="M93.4464 11.5735L93.8989 12.0739C94.1921 11.5982 94.4887 11.1547 94.7416 10.6885C94.8694 10.453 94.9822 10.3926 95.2289 10.5066C95.7661 10.7537 96.3156 10.9762 96.8932 11.2233C96.8187 11.3036 96.7858 11.3716 96.7428 11.3798C96.2992 11.465 96.1277 11.8405 95.8905 12.1536C95.574 12.5744 95.2446 12.9843 94.8564 13.4813L96.1365 12.915C96.2732 13.1848 96.427 13.4422 96.5289 13.7196C96.7749 14.3903 97.0011 15.0686 97.2171 15.7497C97.2465 15.8424 97.2034 16.0366 97.1372 16.0696C96.712 16.2817 96.2712 16.4623 95.7982 16.6696C95.7395 16.4307 95.6909 16.2309 95.6308 15.9886C94.9794 16.0572 94.3322 16.1259 93.6863 16.1891C93.4655 16.2117 93.2407 16.2131 93.024 16.2577C92.6303 16.3319 92.1745 16.2117 91.8792 16.7074C91.6653 16.1582 91.4842 15.6975 91.3037 15.2355L91.2354 15.2499V15.9653C90.8205 15.9653 90.4364 15.9598 90.053 15.9653C89.7741 15.9701 89.3175 16.3772 89.3052 16.6003C89.2929 16.8234 89.3736 16.9298 89.6073 16.9044C89.7241 16.8983 89.8412 16.8983 89.958 16.9044C92.1334 16.9044 94.3089 16.9099 96.4844 16.8976C96.8016 16.8976 96.8617 17.0095 96.8262 17.2916C96.6949 18.2748 95.9506 18.8837 94.7682 18.9126C93.7977 18.9366 92.8265 18.9208 91.856 18.9222H91.3434C93.1573 20.3083 95.1353 21.0642 97.3374 21.4741C96.9731 21.9732 96.5603 22.2725 96.0525 22.4352C94.7539 22.8567 93.5359 22.5835 92.3569 22.002C91.3618 21.5111 90.5047 20.8218 89.6791 20.0886C89.5855 20.0055 89.4877 19.9266 89.3374 19.7975C89.3257 19.9863 89.3128 20.1078 89.3128 20.2294C89.3128 21.0759 89.3039 21.9217 89.3175 22.7696C89.3216 23.049 89.2191 23.141 88.9491 23.1341C88.388 23.1204 87.8262 23.1176 87.2651 23.1341C86.9821 23.1423 86.9076 23.0318 86.9117 22.7613C86.9261 21.9038 86.9172 21.045 86.9172 20.1882V19.6973C86.5249 20.046 86.1893 20.3495 85.8482 20.6454C84.8005 21.5537 83.6714 22.3199 82.2662 22.532C81.2068 22.692 80.1891 22.567 79.2896 21.9141C79.1823 21.8359 79.0914 21.7343 78.9226 21.5784C81.0899 21.2207 82.9496 20.3914 84.6317 18.9311H79.4359C79.4359 18.2755 79.4291 17.6679 79.4468 17.0617C79.4468 17.0054 79.6074 16.9127 79.697 16.9079C80.0353 16.8893 80.375 16.8996 80.714 16.8996H86.5037H86.881V15.9804C86.3649 15.9804 85.7505 15.8073 85.35 16.0277C84.9276 16.2591 84.4799 16.3504 84.0616 16.544C83.977 16.5726 83.8894 16.5912 83.8006 16.5996C83.5914 15.9762 83.5955 15.9858 82.9339 16.0669C82.2504 16.1506 81.5615 16.1987 80.8787 16.2907C80.5561 16.3346 80.2417 16.4458 79.8535 16.5447C79.6799 15.9879 79.4817 15.3529 79.2739 14.6855C79.4284 14.6691 79.5111 14.6409 79.5856 14.6553C80.1706 14.7714 80.5247 14.4761 80.794 14.0004C80.9026 13.8088 81.0414 13.6344 81.1999 13.4031C80.6333 12.7914 80.0872 12.1817 79.5152 11.5975C79.3334 11.4107 79.2862 11.2892 79.4619 11.0723C79.7107 10.7633 79.9239 10.4262 80.1706 10.0754L80.6135 10.4029C80.9067 9.77678 81.2122 9.17193 81.4713 8.54924C81.5834 8.27943 81.6907 8.25128 81.9367 8.36662C82.4493 8.60691 82.9756 8.81836 83.5231 9.05316C83.4622 9.13074 83.4383 9.19047 83.4062 9.19665C82.9804 9.26187 82.8731 9.63603 82.6851 9.93331C82.3598 10.4468 82.031 10.959 81.6934 11.4883L82.124 11.9964L83.0296 10.4132L84.8893 11.2034C84.851 11.2782 84.8394 11.3311 84.821 11.3345C84.3733 11.408 84.2059 11.7808 83.9803 12.1028C83.4253 12.8985 82.8587 13.6818 82.2832 14.4961H83.2709C83.1642 14.196 83.0727 13.9352 82.9599 13.6166C83.4041 13.4793 83.8313 13.342 84.2653 13.2335C84.3166 13.2205 84.4362 13.3379 84.4704 13.4175C84.633 13.8033 84.7779 14.1974 84.959 14.6649C84.959 13.6221 84.959 12.6554 84.959 11.6881C84.959 11.0661 84.9672 10.4427 84.959 9.82071C84.9543 9.57425 85.0458 9.48912 85.2864 9.49804C85.6719 9.51246 86.0587 9.50902 86.4442 9.49804C86.5331 9.49804 86.6746 9.44586 86.6985 9.3827C86.8468 8.98108 86.9719 8.56984 87.114 8.12153C86.7238 8.12153 86.3984 8.11535 86.0738 8.12633C86.0344 8.12867 85.9959 8.13908 85.9606 8.1569C85.9253 8.17473 85.8941 8.1996 85.8687 8.23C85.5188 8.72568 84.9918 8.8726 84.441 8.95499C84.1676 8.99618 83.8026 9.08886 83.6338 8.95499C83.4807 8.83484 83.5374 8.44351 83.4971 8.13114C83.3877 8.12496 83.264 8.11191 83.1396 8.11123C82.0174 8.11123 80.8944 8.10093 79.7715 8.11535C79.4783 8.11947 79.3812 8.02541 79.3956 7.73432C79.4181 7.31194 79.4181 6.88865 79.3956 6.46628C79.3771 6.15047 79.4639 6.03856 79.7988 6.04543C80.8978 6.0674 81.9976 6.05367 83.0966 6.05367H83.5401C83.5401 5.68568 83.5401 5.33898 83.5401 4.99159C83.5401 4.833 83.562 4.70942 83.7643 4.72041C84.6269 4.76915 85.4887 4.81446 86.4299 4.86527C86.3438 5.00257 86.3082 5.11242 86.233 5.17146C85.864 5.46256 85.853 5.47972 85.9596 6.02826H90.2881C90.2881 5.66508 90.2929 5.31632 90.2881 4.96756C90.2881 4.78906 90.3482 4.71079 90.5348 4.72178C91.3748 4.77052 92.2155 4.81172 93.0555 4.85909C93.0855 4.85909 93.1142 4.88929 93.2256 4.94971C93.0889 5.0678 92.998 5.19755 92.873 5.2511C92.5387 5.39459 92.6925 5.66852 92.7028 5.88409C92.7062 5.94588 92.9235 6.04474 93.0445 6.04612C94.2146 6.05847 95.384 6.06328 96.5535 6.04612C96.8617 6.04131 96.9307 6.15184 96.913 6.43607C96.8494 7.46039 96.399 7.98628 95.3888 8.06386C94.5981 8.12496 93.8004 8.10574 93.0056 8.11123C92.9154 8.1064 92.8254 8.12247 92.7424 8.15819C92.6595 8.1939 92.5858 8.2483 92.5271 8.31719C92.3221 8.52796 92.0419 8.66939 91.7753 8.81356C91.6371 8.87778 91.4884 8.91639 91.3365 8.92753C91.0358 8.96597 90.6722 9.09847 90.448 8.97833C90.2785 8.88633 90.2853 8.4648 90.2013 8.1435H88.1468L89.6299 8.54443L89.6668 8.63781C89.2622 8.77511 88.9621 9.0051 88.9047 9.47882H91.234V10.9974L91.8368 10.2086L92.2941 10.521C92.6495 9.79806 92.9967 9.09161 93.3575 8.35632L95.2555 9.19322C95.2364 9.26874 95.2344 9.30787 95.2255 9.30924C94.7471 9.40124 94.6035 9.82209 94.3807 10.1702C94.0848 10.635 93.7717 11.0881 93.4464 11.5735ZM91.273 14.6746C91.5375 14.6368 91.8197 14.6807 91.9503 14.5606C92.292 14.2516 92.5613 13.874 92.849 13.5308L91.273 11.9243V14.6746ZM87.0163 13.5026V14.3141H89.1351V13.5026H87.0163ZM89.1214 11.9565V11.1718H87.0224V11.9565H89.1214ZM94.7587 13.5871C94.4853 13.9173 94.2666 14.1857 93.9829 14.5304L95.1291 14.4398L94.7587 13.5871Z" fill="#32A03D"/>
<path d="M104.068 12.3575H117.433C117.433 12.7843 117.449 13.1822 117.433 13.5753C117.35 15.2885 117.294 17.0044 117.155 18.7128C117.075 19.6907 116.888 20.6652 116.67 21.6245C116.502 22.3763 115.955 22.8739 115.193 22.9783C114.317 23.0979 113.425 23.1027 112.539 23.1343C112.46 23.1343 112.331 22.9831 112.299 22.88C112.16 22.4203 112.056 21.9516 111.938 21.4857C111.888 21.2857 111.771 21.2108 111.554 21.2108C110.179 21.2198 108.803 21.2108 107.427 21.2225C107.315 21.2225 107.139 21.305 107.103 21.3936C106.877 21.9434 106.443 22.2025 105.887 22.3028C105.574 22.3591 105.259 22.3963 104.897 22.4492V15.6293C105.036 15.6231 105.16 15.6128 105.287 15.6128C107.672 15.6128 110.056 15.6176 112.44 15.6053C112.776 15.6053 112.889 15.6939 112.885 16.0375C112.867 17.5308 112.885 19.0241 112.869 20.5174C112.864 20.848 112.973 20.9298 113.291 20.9298C114.132 20.9236 114.364 20.804 114.489 19.9677C114.656 18.8427 114.756 17.7067 114.839 16.5715C114.888 15.9083 114.848 15.239 114.848 14.5477H103.872C103.797 15.1263 103.753 15.7111 103.64 16.2822C103.388 17.5583 103.167 18.8461 102.808 20.0948C102.384 21.5764 100.923 22.59 99.445 22.5749C99.3209 22.5749 99.1961 22.5543 99.0249 22.5392C99.2495 22.1344 99.4595 21.7833 99.6425 21.4239C100.474 19.7746 100.89 18.0071 101.182 16.2052C101.574 13.7958 101.654 11.3673 101.624 8.93179C101.612 7.86181 101.624 6.79183 101.619 5.72184C101.619 5.48338 101.688 5.39336 101.944 5.39405C106.855 5.40046 111.765 5.40046 116.676 5.39405C116.906 5.39405 116.995 5.46277 116.994 5.69367C116.99 7.42268 116.99 9.15147 116.994 10.88C116.994 11.1089 116.901 11.203 116.678 11.1906C116.608 11.1865 116.536 11.1906 116.464 11.1906C112.467 11.1906 108.47 11.1881 104.472 11.1831C104.173 11.1831 104.028 11.2456 104.06 11.5707C104.087 11.8119 104.068 12.062 104.068 12.3575ZM104.079 7.47285C104.079 7.92297 104.096 8.33255 104.073 8.74006C104.058 9.02663 104.143 9.1249 104.446 9.12421C107.6 9.11459 110.754 9.1194 113.907 9.12009H114.498C114.498 8.67272 114.478 8.27413 114.505 7.87899C114.527 7.556 114.426 7.46323 114.094 7.46667C110.964 7.47972 107.835 7.47491 104.704 7.47491L104.079 7.47285ZM110.564 19.2241C110.564 18.7094 110.573 18.2187 110.553 17.7294C110.553 17.6703 110.395 17.5686 110.31 17.5672C109.34 17.5562 108.369 17.5562 107.399 17.5672C107.314 17.5672 107.16 17.6751 107.158 17.7377C107.138 18.2256 107.147 18.7156 107.147 19.222L110.564 19.2241Z" fill="#32A03D"/>
<path d="M37.4395 21.7108C41.5786 19.9093 44.3048 16.9642 45.3591 12.4774H44.8853C42.9061 12.4774 40.9262 12.4712 38.947 12.489C38.591 12.489 38.478 12.3942 38.4965 12.034C38.5259 11.4471 38.5225 10.8574 38.4965 10.2704C38.4821 9.93773 38.5725 9.82913 38.9196 9.83119C40.9926 9.847 43.0663 9.83119 45.1393 9.84563C45.4508 9.84563 45.5357 9.76315 45.5316 9.4518C45.5131 8.00843 45.5275 6.55889 45.5111 5.11277C45.5069 4.78218 45.598 4.69557 45.9328 4.72513C46.8652 4.80898 47.8018 4.84678 48.7397 4.91208C48.8547 4.92033 48.9656 4.987 49.0786 5.02686C48.9978 5.13133 48.9382 5.28666 48.8328 5.32928C48.6411 5.40626 48.6014 5.52035 48.6028 5.70524C48.6089 6.9754 48.6144 8.24831 48.6028 9.51572C48.6028 9.79064 48.7048 9.84494 48.954 9.84357C51.1324 9.83532 53.3115 9.84357 55.49 9.83326C55.7898 9.83326 55.9008 9.88962 55.8693 10.2243C55.7132 11.6801 54.7992 12.4774 53.2376 12.4774C51.9492 12.4774 50.6607 12.4774 49.3723 12.4774H48.9245C50.2938 16.6803 52.6023 19.9643 56.8661 21.6276C55.9329 22.2352 54.9683 22.5417 53.8866 22.4036C52.553 22.2324 51.5418 21.4702 50.5936 20.5877C49.221 19.3058 48.2659 17.7477 47.5526 16.026C47.4629 15.8102 47.3711 15.595 47.2616 15.3345C47.0562 15.8617 46.8659 16.3497 46.6667 16.8322C45.8383 18.8371 44.4136 20.3196 42.6322 21.4977C41.5903 22.185 40.4675 22.5507 39.2153 22.4407C38.5766 22.3823 37.9824 22.1926 37.4395 21.7108Z" fill="#32A03D"/>
<path d="M75.9509 4.94104C75.8891 5.01697 75.8399 5.14261 75.7643 5.16056C75.4058 5.24685 75.4557 5.51262 75.4564 5.76942C75.4564 6.73586 75.4675 7.70644 75.4516 8.67495C75.4467 8.95108 75.5209 9.07741 75.8059 9.04358C75.8771 9.03944 75.9484 9.03944 76.0195 9.04358C76.6727 9.04358 76.7005 9.07258 76.5632 9.72493C76.4349 10.3345 76.17 10.8529 75.6007 11.1849C75.5126 11.2367 75.462 11.4169 75.4585 11.5377C75.453 14.4784 75.453 17.419 75.4585 20.3592C75.4585 20.5719 75.4585 20.7845 75.4509 20.9971C75.4065 22.1782 74.9391 22.7636 73.7866 22.9893C73.2666 23.0915 72.7278 23.1067 72.1959 23.1343C72.0884 23.1398 71.9053 23.0453 71.8748 22.9569C71.6529 22.3128 71.4588 21.6577 71.2611 21.0061C71.2556 20.9867 71.2695 20.9626 71.2757 20.9322C71.7687 20.9322 72.2632 20.9177 72.7562 20.9377C73.0877 20.9508 73.234 20.8431 73.2277 20.4959C73.2118 19.5985 73.2194 18.7011 73.2159 17.8037C73.2105 17.757 73.2013 17.7108 73.1882 17.6656L71.673 18.1785C71.3305 16.4776 70.9942 14.8091 70.6488 13.0964L72.3748 12.5752L73.2035 15.6333V11.2367H70.2217C70.9845 10.6755 70.9054 9.84711 71.017 9.04289H73.2194V8.57831C73.2194 7.43308 73.2277 6.28715 73.2139 5.14192C73.2097 4.82507 73.2957 4.69736 73.6348 4.7229C74.3885 4.7795 75.1451 4.80574 75.9002 4.84439L75.9509 4.94104Z" fill="#32A03D"/>
<path d="M60.589 23.1345V16.6314C60.3238 17.1434 60.0233 17.4769 59.5744 17.6382C59.1365 17.7962 58.6586 17.8051 58.2151 17.6637C59.401 15.5736 60.1249 13.3657 60.5434 10.9689H59.1282C58.6033 10.9689 58.6033 10.9689 58.6019 10.4631C58.6019 10.0035 58.606 9.54316 58.5984 9.0849C58.5984 8.87816 58.6675 8.78927 58.8885 8.79478C59.3257 8.80649 59.7643 8.77755 60.2009 8.80236C60.5103 8.81959 60.5759 8.69555 60.5724 8.41439C60.5593 7.30561 60.5724 6.19751 60.5621 5.08873C60.5621 4.79999 60.6353 4.69594 60.9461 4.72419C61.661 4.78897 62.3793 4.81515 63.1895 4.86201C63.0721 5.01293 63.0189 5.15282 62.9284 5.18383C62.686 5.26859 62.6618 5.4264 62.6646 5.6476C62.6756 6.59031 62.6777 7.53439 62.6646 8.4771C62.6646 8.72449 62.7336 8.81407 62.9837 8.80236C63.3601 8.78444 63.7379 8.79754 64.1075 8.79754C64.3457 9.61207 63.8353 10.5927 63.0023 10.8842C62.7261 10.9813 62.6742 11.1178 62.6611 11.3858C62.5997 12.6262 63.2137 13.5993 63.8906 14.5482C64.0978 14.8342 64.3326 15.0946 64.5557 15.3668C64.1233 15.6425 63.5715 15.5129 62.6701 14.9093V15.2704C62.6701 17.108 62.6701 18.9475 62.6701 20.7888C62.6701 21.9768 62.0305 22.8348 60.962 23.0884C60.8386 23.1102 60.7141 23.1256 60.589 23.1345Z" fill="#32A03D"/>
<path d="M68.4769 9.48276H70.248C70.3681 10.3558 69.8971 11.1059 69.1175 11.3024C68.9037 11.3576 68.6844 11.3867 68.464 11.3892C66.921 11.3989 65.3772 11.3976 63.8342 11.3976C63.7568 11.3976 63.6795 11.3802 63.5444 11.3642C63.6013 11.3073 63.6611 11.2535 63.7236 11.2031C64.2142 10.8614 64.4978 10.3898 64.5378 9.78418C64.5541 9.53832 64.6498 9.46054 64.8812 9.46748C65.2985 9.47929 65.7165 9.46193 66.1345 9.46748C66.3299 9.46748 66.4399 9.40776 66.4297 9.18273C66.4181 8.92437 66.4297 8.66531 66.4297 8.36598C65.762 8.36598 65.1262 8.35 64.4924 8.37292C64.1762 8.38403 64.0547 8.28888 64.0696 7.95621C64.092 7.46171 64.0757 6.96513 64.0757 6.42826C64.7428 6.42826 65.365 6.40674 65.9879 6.4366C66.3401 6.45327 66.469 6.35048 66.4371 5.98308C66.412 5.63954 66.412 5.29456 66.4371 4.95102C66.4426 4.86699 66.5532 4.71766 66.6115 4.71975C67.3831 4.74336 68.1546 4.7892 69.0198 4.83365C68.9146 4.98436 68.8745 5.11146 68.806 5.12812C68.4722 5.22675 68.4667 5.47191 68.4728 5.76083C68.4912 6.47619 68.3541 6.42896 69.1209 6.42688C69.7092 6.42688 70.2982 6.42688 70.8811 6.42688C70.9115 6.65024 70.8979 6.87758 70.8409 7.09545C70.784 7.31331 70.6849 7.51727 70.5496 7.69523C70.4142 7.8732 70.2454 8.02156 70.053 8.13152C69.8606 8.24149 69.6486 8.31082 69.4296 8.33542C69.3489 8.34514 69.2674 8.34861 69.1867 8.35625C68.4728 8.42154 68.4728 8.42154 68.4755 9.15078C68.4776 9.23621 68.4769 9.3265 68.4769 9.48276Z" fill="#32A03D"/>
<path d="M70.5191 16.7891H67.1389C66.3994 16.7891 65.6599 16.7809 64.9203 16.7938C64.6692 16.7979 64.5548 16.738 64.5562 16.4682C64.5659 15.1058 64.5659 13.7433 64.5562 12.3809C64.5562 12.1581 64.6357 12.0716 64.868 12.0723C66.6568 12.08 68.4458 12.0816 70.2351 12.077C70.473 12.077 70.5525 12.1683 70.5525 12.3815C70.5525 13.7894 70.5549 15.1984 70.5595 16.6085C70.5518 16.6698 70.5382 16.7302 70.5191 16.7891V16.7891ZM66.5543 13.7467C66.5543 14.1827 66.548 14.5764 66.5605 14.9688C66.5605 15.0254 66.6498 15.1262 66.7001 15.1269C67.2896 15.1378 67.8798 15.1344 68.484 15.1344C68.484 14.7168 68.4777 14.3564 68.484 13.996C68.4889 13.8155 68.4142 13.744 68.2342 13.7454C67.688 13.7494 67.141 13.7467 66.5543 13.7467Z" fill="#32A03D"/>
<path d="M69.5675 19.5467L70.8646 19.3819C71.0387 20.4276 70.5 21.303 69.4583 21.5157C68.0186 21.8097 66.5761 22.0929 65.1343 22.3767C64.907 22.4212 64.6776 22.4389 64.5404 22.6735C64.5077 22.7289 64.4039 22.7419 64.2954 22.7973C64.0448 22.0183 63.8038 21.2674 63.5444 20.4665C64.1104 20.3858 64.6367 20.3133 65.1603 20.2354C65.8757 20.1301 66.5891 20.0117 67.3059 19.918C67.538 19.8873 67.6527 19.7936 67.7059 19.5645C67.8971 18.7335 68.1039 17.9067 68.3053 17.0784L68.3736 16.7939L70.6775 17.5811C70.627 17.6632 70.6093 17.7289 70.5799 17.7343C70.0843 17.8253 70.0604 18.265 69.9212 18.6186C69.8058 18.9079 69.6993 19.1993 69.5675 19.5467Z" fill="#32A03D"/>
<path d="M65.1566 20.0993C64.945 19.2709 64.742 18.4947 64.5576 17.7134C64.543 17.6497 64.6402 17.5146 64.712 17.4923C65.154 17.3565 65.6012 17.2329 66.0532 17.1335C66.135 17.1156 66.3127 17.2131 66.3367 17.289C66.5457 17.9524 66.736 18.6215 66.9131 19.2932C66.9344 19.3728 66.8658 19.5398 66.7993 19.5634C66.2548 19.7558 65.7051 19.9228 65.1566 20.0993Z" fill="#32A03D"/>
</svg>
